<svg width="24" height="24" viewBox="0 0 24 24" fill="none" xmlns="http://www.w3.org/2000/svg">
<g id="Icons/System/Add">
<path id="Union" fill-rule="evenodd" clip-rule="evenodd" d="M12.7714 3.77143C12.7714 3.34538 12.426 3 12 3C11.574 3 11.2286 3.34538 11.2286 3.77143V11.2286H3.77143C3.34538 11.2286 3 11.574 3 12C3 12.426 3.34538 12.7714 3.77143 12.7714H11.2286V20.2286C11.2286 20.6546 11.574 21 12 21C12.426 21 12.7714 20.6546 12.7714 20.2286V12.7714H20.2286C20.6546 12.7714 21 12.426 21 12C21 11.574 20.6546 11.2286 20.2286 11.2286H12.7714V3.77143Z" fill="black"/>
</g>
</svg>
