<svg width="24" height="23" viewBox="0 0 24 23" fill="none" xmlns="http://www.w3.org/2000/svg">
<g id="Frame">
<path id="Vector" d="M2.25 6.81818H21.75L12 0.818176L2.25 6.81818Z" stroke="#616161" stroke-width="1.5" stroke-linecap="round" stroke-linejoin="round"/>
<path id="Vector_2" d="M4.36365 7.63635V19.6364" stroke="#616161" stroke-width="1.5" stroke-linecap="round" stroke-linejoin="round"/>
<path id="Vector_3" d="M7.54688 7.63635V19.6364" stroke="#616161" stroke-width="1.5" stroke-linecap="round" stroke-linejoin="round"/>
<path id="Vector_4" d="M16.4531 7.63635V19.6364" stroke="#616161" stroke-width="1.5" stroke-linecap="round" stroke-linejoin="round"/>
<path id="Vector_5" d="M19.6364 7.63635V19.6364" stroke="#616161" stroke-width="1.5" stroke-linecap="round" stroke-linejoin="round"/>
<path id="Vector_6" d="M3 19.6364H21" stroke="#616161" stroke-width="1.5" stroke-linecap="round" stroke-linejoin="round"/>
<g id="Group 600">
<path id="Vector_7" d="M12.0818 9.3219V10.2819" stroke="#616161" stroke-width="1.5" stroke-linecap="round" stroke-linejoin="round"/>
<path id="Vector_8" d="M12.0818 15.0817V16.0417" stroke="#616161" stroke-width="1.5" stroke-linecap="round" stroke-linejoin="round"/>
<path id="Vector_9" d="M10.6401 15.0817H12.8001C13.1183 15.0817 13.4236 14.9553 13.6486 14.7303C13.8736 14.5052 14.0001 14.2 14.0001 13.8818C14.0001 13.5635 13.8736 13.2583 13.6486 13.0333C13.4236 12.8082 13.1183 12.6818 12.8001 12.6818H11.3601C11.0419 12.6818 10.7367 12.5554 10.5116 12.3303C10.2866 12.1053 10.1602 11.8001 10.1602 11.4818C10.1602 11.1636 10.2866 10.8584 10.5116 10.6333C10.7367 10.4083 11.0419 10.2819 11.3601 10.2819H13.5201" stroke="#616161" stroke-width="1.5" stroke-linecap="round" stroke-linejoin="round"/>
</g>
</g>
</svg>
