<svg width="24" height="24" viewBox="0 0 24 24" fill="none" xmlns="http://www.w3.org/2000/svg">
<g id="Icons/System/&#8;CITAS transfer">
<path id="Union" fill-rule="evenodd" clip-rule="evenodd" d="M16.9697 5.46967C17.2626 5.17678 17.7374 5.17678 18.0303 5.46967L20.0303 7.46967C20.3232 7.76256 20.3232 8.23744 20.0303 8.53033L18.0303 10.5303C17.7374 10.8232 17.2626 10.8232 16.9697 10.5303C16.6768 10.2374 16.6768 9.76256 16.9697 9.46967L17.6348 8.80458C15.5359 9.07993 14.2733 10.3679 13.0073 11.9992C14.2756 13.6312 15.5321 14.9205 17.6349 15.1956L16.9697 14.5303C16.6768 14.2374 16.6768 13.7626 16.9697 13.4697C17.2626 13.1768 17.7374 13.1768 18.0303 13.4697L20.0303 15.4697C20.3232 15.7626 20.3232 16.2374 20.0303 16.5303L18.0303 18.5303C17.7374 18.8232 17.2626 18.8232 16.9697 18.5303C16.6768 18.2374 16.6768 17.7626 16.9697 17.4697L17.7247 16.7147C14.4245 16.4068 12.7292 14.1425 11.2176 12.1236L11.0875 11.95C9.39698 9.69597 7.84767 7.75 4.5 7.75C4.08579 7.75 3.75 7.41421 3.75 7C3.75 6.58579 4.08579 6.25 4.5 6.25C8.47613 6.25 10.4335 8.59187 12.0715 10.7626C13.4015 9.09854 15.0214 7.5369 17.7246 7.28525L16.9697 6.53033C16.6768 6.23744 16.6768 5.76256 16.9697 5.46967ZM10.6141 15.0122C10.897 14.7097 10.8811 14.2351 10.5785 13.9522C10.2759 13.6693 9.80132 13.6852 9.51843 13.9878C8.29542 15.2958 6.84213 16.25 4.5 16.25C4.08579 16.25 3.75 16.5858 3.75 17C3.75 17.4142 4.08579 17.75 4.5 17.75C7.36414 17.75 9.18963 16.5358 10.6141 15.0122Z" fill="black"/>
</g>
</svg>
