<svg width="32" height="32" viewBox="0 0 32 32" fill="none" xmlns="http://www.w3.org/2000/svg">
<g id="Icons/Products/Current account">
<path id="Vector 555 (Stroke)" fill-rule="evenodd" clip-rule="evenodd" d="M3.8701 10.3096C3.71353 9.92611 3.89748 9.48831 4.28097 9.33174L19.6188 3.06968C21.2805 2.39122 23.1777 3.18835 23.8561 4.85011L25.8227 9.66696C25.9793 10.0504 25.7953 10.4882 25.4119 10.6448C25.0284 10.8014 24.5906 10.6174 24.434 10.2339L22.4674 5.41709C22.1021 4.5223 21.0806 4.09307 20.1858 4.4584L4.84795 10.7205C4.46446 10.877 4.02667 10.6931 3.8701 10.3096Z" fill="black"/>
<path id="Ellipse 2" d="M26 18.6479C26 19.7525 25.1046 20.6479 24 20.6479C22.8954 20.6479 22 19.7525 22 18.6479C22 17.5434 22.8954 16.6479 24 16.6479C25.1046 16.6479 26 17.5434 26 18.6479Z" fill="#ED1C24"/>
<path id="Vector 554 (Stroke)" fill-rule="evenodd" clip-rule="evenodd" d="M1.99805 11.5669C1.99805 10.3243 3.00541 9.31689 4.24805 9.31689H27.7757C29.0183 9.31689 30.0257 10.3243 30.0257 11.5669V25.7297C30.0257 26.9724 29.0183 27.9797 27.7757 27.9797H4.24805C3.00541 27.9797 1.99805 26.9724 1.99805 25.7297V11.5669ZM4.24805 10.8169C3.83383 10.8169 3.49805 11.1527 3.49805 11.5669V25.7297C3.49805 26.1439 3.83383 26.4797 4.24805 26.4797H27.7757C28.1899 26.4797 28.5257 26.1439 28.5257 25.7297V11.5669C28.5257 11.1527 28.1899 10.8169 27.7757 10.8169H4.24805Z" fill="black"/>
</g>
</svg>
