<svg width="24" height="24" viewBox="0 0 24 24" fill="none" xmlns="http://www.w3.org/2000/svg">
<g id="Icons/System/Edit">
<g id="Union">
<path fill-rule="evenodd" clip-rule="evenodd" d="M17.1995 11.3676V11.4278L17.1277 11.4579L9.32177 21.0371C9.08938 21.3224 8.7947 21.5534 8.45927 21.7131C8.12384 21.8728 7.75616 21.9571 7.38311 21.9599H3.6494C3.47715 21.9603 3.30974 21.9042 3.17398 21.8005C3.03821 21.6969 2.94195 21.5517 2.90061 21.3881L2.0595 17.9075C1.97938 17.5599 1.98018 17.1992 2.06186 16.8519C2.14353 16.5047 2.30398 16.1798 2.53134 15.9014L12.2041 4.06533C12.7227 3.46608 13.4602 3.08872 14.2593 3.01376C15.0584 2.9388 15.8558 3.17218 16.4815 3.66411L18.2457 4.98814C18.5709 5.18538 18.8526 5.44394 19.0745 5.74876C19.2964 6.05358 19.454 6.39855 19.5382 6.76356C19.6364 7.13908 19.6552 7.53027 19.5935 7.91316C19.5318 8.29605 19.3908 8.66259 19.1792 8.99034L17.1995 11.3676ZM14.4212 4.51019C14.023 4.54576 13.6545 4.73158 13.394 5.02827L12.081 6.63316L16.4507 9.91316L17.9072 8.13774C17.9972 7.98788 18.0554 7.82182 18.0783 7.64949C18.1012 7.47715 18.0884 7.30207 18.0406 7.13469C17.997 6.94952 17.9154 6.77492 17.8008 6.62147C17.6862 6.46803 17.541 6.33892 17.3739 6.24197L15.5275 4.83769C15.2163 4.59207 14.8195 4.47461 14.4212 4.51019ZM7.7908 20.3291C7.92162 20.2686 8.03787 20.1817 8.1319 20.0741L15.5378 11.0968L11.1681 7.81677L3.79301 16.8443C3.69549 16.9424 3.62324 17.0618 3.58222 17.1926C3.5412 17.3234 3.53258 17.4619 3.55709 17.5966L4.29562 20.4252H7.37285C7.51754 20.4224 7.65997 20.3896 7.7908 20.3291Z" fill="#616161"/>
<path d="M13.794 20.4954H21.2307C21.4347 20.4954 21.6304 20.5747 21.7747 20.7158C21.9189 20.8568 22 21.0482 22 21.2477C22 21.4472 21.9189 21.6386 21.7747 21.7797C21.6304 21.9207 21.4347 22 21.2307 22H13.794C13.59 22 13.3943 21.9207 13.2501 21.7797C13.1058 21.6386 13.0247 21.4472 13.0247 21.2477C13.0247 21.0482 13.1058 20.8568 13.2501 20.7158C13.3943 20.5747 13.59 20.4954 13.794 20.4954Z" fill="#616161"/>
</g>
</g>
</svg>
