<svg width="146" height="21" viewBox="0 0 146 21" fill="none" xmlns="http://www.w3.org/2000/svg">
<g id="Logo TCB/Full">
<path id="Bank" fill-rule="evenodd" clip-rule="evenodd" d="M70.8168 9.28742H71.3389C71.5606 9.28742 71.753 9.27003 71.9304 9.25844V11.0269H70.8168V13.1398H71.9304V15.1309C71.6786 15.1309 71.3991 15.1375 71.082 15.1375H68.3201V5.38624H71.0243C71.3481 5.38624 71.6485 5.38624 71.9304 5.40693V7.34594C71.7664 7.32689 71.5748 7.31199 71.3832 7.31199H70.8168V9.28742ZM81.5818 5.38623V6.97419L81.5751 6.96012C81.5098 7.21512 81.4722 7.43369 81.4094 7.65143C81.3509 7.87166 81.2923 8.08195 81.2371 8.27652L80.2556 11.4905H81.5818V13.3914H79.6741L79.1545 15.1375H76.4913L79.8824 5.38623H81.5818ZM71.9304 9.25844C72.2743 9.22781 72.5379 9.17074 72.7102 9.06559C72.942 8.91326 73.0616 8.66488 73.0616 8.31467C73.0616 7.94955 72.9612 7.69538 72.7219 7.54966C72.5722 7.44783 72.3028 7.37574 71.9304 7.34594V5.40693C72.5563 5.4177 73.0307 5.44839 73.3244 5.4931C73.7778 5.5585 74.1577 5.68518 74.4715 5.86152C74.848 6.06271 75.1124 6.33178 75.2965 6.67123C75.4981 7.0082 75.5868 7.39153 75.5868 7.83281C75.5868 8.38421 75.4512 8.81059 75.1718 9.14839C74.8689 9.47045 74.4321 9.70972 73.8021 9.89683C74.4991 9.9523 75.0454 10.1833 75.4362 10.608C75.8411 11.0485 76.0286 11.6214 76.0286 12.3467C76.0286 12.8724 75.9257 13.322 75.7023 13.7235C75.4789 14.1126 75.1559 14.4256 74.7543 14.6408C74.4121 14.813 73.9971 14.9422 73.5001 15.02C73.1461 15.0838 72.6123 15.1102 71.9304 15.1309V13.1398C72.4693 13.1215 72.8541 13.0529 73.0876 12.8997C73.3545 12.7615 73.4925 12.4949 73.4925 12.1223C73.4925 11.715 73.3545 11.421 73.1235 11.2762C72.8968 11.1097 72.496 11.0393 71.9304 11.0269V9.25844ZM99.3123 15.1375V5.38623H101.973V9.8148L105.095 5.38623H108.213L104.571 10.1427L108.529 15.1375H105.187L101.973 10.7578V15.1375H99.3123ZM87.595 15.1375V5.38623H90.1729L93.8937 10.3977C93.964 10.5094 94.0803 10.7123 94.2476 11.0269C94.4124 11.3274 94.5873 11.6992 94.7823 12.1222C94.7354 11.7149 94.6936 11.3597 94.6593 11.0393C94.6459 10.7255 94.6358 10.4482 94.6358 10.1965V5.38623H97.202V15.1375H94.6358L90.9117 10.0971C90.8456 9.98949 90.726 9.79742 90.5653 9.49439C90.4005 9.17896 90.2223 8.81053 90.029 8.40567C90.07 8.80473 90.1168 9.17068 90.1453 9.47039C90.1587 9.79742 90.1729 10.0764 90.1729 10.319V15.1375H87.595ZM81.5818 13.3914V11.4905H82.9046L81.9148 8.27652C81.8855 8.18131 81.8362 8.0182 81.7885 7.79963C81.7358 7.58934 81.6621 7.31198 81.5818 6.97419V5.38623H83.2544L86.653 15.1375H83.9815L83.4778 13.3914H81.5818Z" fill="black"/>
<path id="Techcom" fill-rule="evenodd" clip-rule="evenodd" d="M42.7268 5.34655V8.36751C42.356 7.96443 42.0009 7.65025 41.6368 7.44741C41.2759 7.25062 40.881 7.15826 40.4636 7.15826C39.7144 7.15826 39.0925 7.41461 38.6044 7.97738C38.1371 8.5082 37.896 9.21252 37.896 10.0886C37.896 10.9025 38.1554 11.574 38.6194 12.1264C39.1108 12.665 39.7294 12.9248 40.4636 12.9248C40.881 12.9248 41.2759 12.8282 41.6368 12.6314C42.0009 12.4406 42.356 12.1264 42.7268 11.6949V14.7366C42.3003 14.9264 41.8862 15.1017 41.4813 15.207C41.0423 15.3183 40.6307 15.3606 40.2066 15.3606C39.6745 15.3606 39.1665 15.3054 38.7275 15.1612C38.266 15.0395 37.8545 14.8384 37.4645 14.57C36.7469 14.0624 36.1899 13.4194 35.8074 12.653C35.4166 11.8692 35.2337 11.0044 35.2337 10.0368C35.2337 9.25913 35.3551 8.54963 35.5937 7.92127C35.8298 7.27997 36.2082 6.71375 36.6921 6.19156C37.161 5.70303 37.6782 5.33447 38.266 5.08934C38.8406 4.83903 39.4966 4.7251 40.2066 4.7251C40.6307 4.7251 41.0423 4.7648 41.4813 4.87183C41.8862 4.98576 42.3003 5.13163 42.7268 5.34655ZM24.6833 15.1017V4.94778H27.3473V8.90869H30.9018V4.94778H33.5716V15.1017H30.9018V10.9716H27.3473V15.1017H24.6833ZM23.1784 5.34655V8.36751C22.81 7.96443 22.4533 7.65025 22.0883 7.44741C21.7391 7.25062 21.3367 7.15826 20.9268 7.15826C20.1502 7.15826 19.5341 7.41461 19.061 7.97738C18.5904 8.5082 18.3468 9.21252 18.3468 10.0886C18.3468 10.9025 18.5979 11.574 19.0726 12.1264C19.5649 12.665 20.1801 12.9248 20.9268 12.9248C21.3367 12.9248 21.7391 12.8282 22.0883 12.6314C22.4533 12.4406 22.81 12.1264 23.1784 11.6949V14.7366C22.7477 14.9264 22.3394 15.1017 21.922 15.207C21.4988 15.3183 21.0823 15.3606 20.6591 15.3606C20.1269 15.3606 19.6197 15.3054 19.1766 15.1612C18.7176 15.0395 18.3094 14.8384 17.9252 14.57C17.1994 14.0624 16.6431 13.4194 16.2532 12.653C15.8682 11.8692 15.677 11.0044 15.677 10.0368C15.677 9.25913 15.815 8.54963 16.0503 7.92127C16.2914 7.27997 16.6523 6.71375 17.142 6.19156C17.6159 5.70303 18.1273 5.33447 18.7068 5.08934C19.2946 4.83903 19.9332 4.7251 20.6591 4.7251C21.0823 4.7251 21.4988 4.7648 21.922 4.87183C22.3394 4.98576 22.7477 5.13163 23.1784 5.34655ZM8.35255 15.1017V4.94778H14.3324V7.18761H10.9401V8.9389H14.1378V11.1166H10.9401V12.8282H14.3324V15.1017H8.35255ZM49.051 4.73548V7.06162C48.3127 7.06162 47.7024 7.35508 47.2118 7.9213C46.7221 8.4901 46.4876 9.20304 46.4876 10.0558C46.4876 10.9155 46.7221 11.6319 47.1993 12.1895C47.6733 12.7566 48.2944 13.0284 49.051 13.0284V15.377C48.3484 15.377 47.6733 15.2398 47.038 14.9791C46.3995 14.7012 45.8474 14.3197 45.3502 13.813C44.8488 13.3098 44.4705 12.7402 44.2044 12.0963C43.9533 11.4515 43.8195 10.7757 43.8195 10.0558C43.8195 9.32043 43.9533 8.64028 44.2044 8.00416C44.4705 7.35508 44.8488 6.788 45.3502 6.28221C45.8474 5.79368 46.3995 5.41217 47.038 5.13166C47.6733 4.85545 48.3484 4.73548 49.051 4.73548ZM2.19564 15.1017V7.35506H-0.000244141V4.94778H7.04471V7.35506H4.85548V15.1017H2.19564ZM67.1502 15.1017H64.655L64.0821 10.7109C64.0497 10.408 64.0015 10.0782 63.9757 9.68465C63.9416 9.30314 63.9175 8.88625 63.89 8.4426C63.8335 8.87503 63.6955 9.41276 63.5201 10.0558C63.4668 10.1879 63.4452 10.2914 63.4303 10.3475L62.1007 15.1017H60.3264L58.9969 10.3475C58.9803 10.2914 58.9595 10.1879 58.9071 10.0558C58.7325 9.41276 58.5978 8.87503 58.5587 8.4426C58.5296 8.82928 58.498 9.21251 58.449 9.59661C58.4232 9.9643 58.3775 10.3475 58.3359 10.7109L57.758 15.1017H55.2786L56.7819 4.94778H59.4301L60.9051 10.1879C60.9051 10.225 60.9342 10.2914 60.9434 10.3821C61.0955 10.8456 61.1837 11.2357 61.2127 11.574C61.2285 11.3893 61.2568 11.1925 61.3208 10.9716C61.3632 10.7498 61.4323 10.4805 61.5071 10.1801L63.0012 4.94778H65.6436L67.1502 15.1017ZM49.051 15.377V13.0284C49.7893 13.0284 50.3829 12.7566 50.8735 12.1895C51.3707 11.6181 51.5968 10.9155 51.5968 10.0558C51.5968 9.20304 51.3707 8.4901 50.8635 7.9213C50.3754 7.35508 49.7744 7.06162 49.051 7.06162V4.73548C49.7394 4.73548 50.407 4.85545 51.0556 5.13166C51.6908 5.41217 52.267 5.79368 52.7534 6.28221C53.2348 6.788 53.6123 7.35508 53.8725 8.00416C54.1419 8.64028 54.2725 9.32043 54.2725 10.0558C54.2725 10.7757 54.1419 11.4644 53.8725 12.1118C53.6206 12.7402 53.2348 13.3098 52.7534 13.813C52.252 14.3197 51.6908 14.7012 51.0373 14.9791C50.407 15.2398 49.7394 15.377 49.051 15.377Z" fill="#ED1C24"/>
<path id="Main Icon" fill-rule="evenodd" clip-rule="evenodd" d="M130.512 5.24855L125.361 10.4929L130.512 15.761L125.361 21.0002L115.046 10.4929L125.361 0L130.512 5.24855ZM146.002 10.4929L135.685 0L130.512 5.24855L135.685 10.4929L130.512 15.761L135.685 21.0002L146.002 10.4929Z" fill="#ED1C24"/>
</g>
</svg>
