<svg width="28" height="28" viewBox="0 0 28 28" fill="none" xmlns="http://www.w3.org/2000/svg">
    <g id="Action">
        <path id="action/search" fill-rule="evenodd" clip-rule="evenodd"
            d="M18.3809 16.6308H17.4593L17.1326 16.3158C18.2759 14.9858 18.9643 13.2592 18.9643 11.3808C18.9643 7.19249 15.5693 3.79749 11.3809 3.79749C7.19261 3.79749 3.79761 7.19249 3.79761 11.3808C3.79761 15.5692 7.19261 18.9642 11.3809 18.9642C13.2593 18.9642 14.9859 18.2758 16.3159 17.1325L16.6309 17.4592V18.3808L22.4643 24.2025L24.2026 22.4642L18.3809 16.6308ZM11.3809 16.6308C8.47594 16.6308 6.13094 14.2858 6.13094 11.3808C6.13094 8.47582 8.47594 6.13082 11.3809 6.13082C14.2859 6.13082 16.6309 8.47582 16.6309 11.3808C16.6309 14.2858 14.2859 16.6308 11.3809 16.6308Z"
            fill="#C5C5C5" />
        <mask id="mask0_11550_6864" style="mask-type:luminance" maskUnits="userSpaceOnUse" x="3"
            y="3" width="22" height="22">
            <path id="action/search_2" fill-rule="evenodd" clip-rule="evenodd"
                d="M18.3809 16.6308H17.4593L17.1326 16.3158C18.2759 14.9858 18.9643 13.2592 18.9643 11.3808C18.9643 7.19249 15.5693 3.79749 11.3809 3.79749C7.19261 3.79749 3.79761 7.19249 3.79761 11.3808C3.79761 15.5692 7.19261 18.9642 11.3809 18.9642C13.2593 18.9642 14.9859 18.2758 16.3159 17.1325L16.6309 17.4592V18.3808L22.4643 24.2025L24.2026 22.4642L18.3809 16.6308ZM11.3809 16.6308C8.47594 16.6308 6.13094 14.2858 6.13094 11.3808C6.13094 8.47582 8.47594 6.13082 11.3809 6.13082C14.2859 6.13082 16.6309 8.47582 16.6309 11.3808C16.6309 14.2858 14.2859 16.6308 11.3809 16.6308Z"
                fill="white" />
        </mask>
        <g mask="url(#mask0_11550_6864)"></g>
    </g>
</svg>
