<svg width="24" height="24" viewBox="0 0 24 24" fill="none" xmlns="http://www.w3.org/2000/svg">
<g id="Icons/System/Share">
<g id="Union">
<path d="M15.5673 5.5312C15.8608 5.2389 15.8618 4.76403 15.5695 4.47054L12.6535 1.54254C12.5128 1.40122 12.3215 1.32178 12.1221 1.32178C11.9226 1.32178 11.7314 1.40122 11.5907 1.54254L8.67467 4.47054C8.38238 4.76403 8.38335 5.2389 8.67685 5.5312C8.97034 5.82349 9.44521 5.82251 9.7375 5.52902L11.3723 3.88748V13.9998C11.3723 14.414 11.7081 14.7498 12.1223 14.7498C12.5365 14.7498 12.8723 14.414 12.8723 13.9998V3.88794L14.5067 5.52902C14.799 5.82251 15.2738 5.82349 15.5673 5.5312Z" fill="black"/>
<path d="M20.25 11.8128V16.6968C20.25 18.1917 19.8052 18.8538 19.3821 19.1767C18.9194 19.5298 18.3007 19.6218 17.697 19.6218H6.55701C5.80907 19.6218 5.12823 19.5246 4.63686 19.1659C4.19457 18.843 3.75 18.1875 3.75 16.6868V11.8018C3.75 10.4556 3.99748 9.75169 4.36297 9.3657C4.71755 8.99125 5.34348 8.74978 6.54701 8.74978H7.48901C7.90322 8.74978 8.23901 8.41399 8.23901 7.99978C8.23901 7.58557 7.90322 7.24978 7.48901 7.24978H6.54701C5.20355 7.24978 4.05597 7.50831 3.27379 8.33435C2.50253 9.14887 2.25 10.3459 2.25 11.8018V16.6868C2.25 18.499 2.80543 19.6861 3.75239 20.3774C4.65028 21.0329 5.74794 21.1218 6.55701 21.1218H17.697C18.3964 21.1218 19.4291 21.0277 20.2921 20.3691C21.1948 19.6803 21.75 18.5049 21.75 16.6968V11.8128C21.75 10.3317 21.4576 9.14278 20.691 8.3351C19.9144 7.51681 18.8052 7.24978 17.56 7.24978H16.627C16.2128 7.24978 15.877 7.58557 15.877 7.99978C15.877 8.41399 16.2128 8.74978 16.627 8.74978H17.56C18.6269 8.74978 19.2377 8.98276 19.603 9.36771C19.9784 9.76328 20.25 10.4809 20.25 11.8128Z" fill="black"/>
</g>
</g>
</svg>
